<?xml version="1.0" encoding="utf-8"?>
<!-- Generator: Adobe Illustrator 18.1.1, SVG Export Plug-In . SVG Version: 6.00 Build 0)  -->
<svg version="1.1" id="Layer_1" xmlns="http://www.w3.org/2000/svg" xmlns:xlink="http://www.w3.org/1999/xlink" x="0px" y="0px"
	 viewBox="0 0 412.9 434.7" enable-background="new 0 0 412.9 434.7" xml:space="preserve">
<g>
	<polygon fill="none" stroke="#BCBDBF" stroke-width="0.5" stroke-miterlimit="10" points="106.7,266.5 38.1,217.9 16.9,136.6 
		52.8,60.7 129.2,25.6 210.2,47.8 258,116.9 250.2,200.6 190.4,259.6 	"/>
	<polygon fill="none" stroke="#BCBDBF" stroke-width="0.5" stroke-miterlimit="10" points="201.3,356.1 132.8,307.5 111.5,226.2 
		147.5,150.3 223.8,115.2 304.8,137.4 352.6,206.5 344.8,290.2 285.1,349.3 	"/>
	<polygon fill="none" stroke="#BCBDBF" stroke-width="0.5" stroke-miterlimit="10" points="220.4,256.2 151.8,207.7 130.6,126.4 
		166.5,50.4 242.9,15.4 323.9,37.6 371.7,106.7 363.9,190.4 304.1,249.4 	"/>
	<polygon fill="none" stroke="#BCBDBF" stroke-width="0.5" stroke-miterlimit="10" points="92.9,390.2 24.3,341.7 3.1,260.4 
		39,184.4 115.4,149.4 196.4,171.6 244.2,240.7 236.4,324.4 176.6,383.4 	"/>
	<polygon fill="none" stroke="#BCBDBF" stroke-width="0.5" stroke-miterlimit="10" points="286.3,131.6 275.5,124 272.1,111.2 
		277.8,99.2 289.8,93.7 302.6,97.2 310.1,108.1 308.9,121.3 299.4,130.6 	"/>
	<polygon fill="none" stroke="#BCBDBF" stroke-width="0.5" stroke-miterlimit="10" points="301.2,145.8 290.4,138.1 287,125.3 
		292.7,113.3 304.7,107.8 317.5,111.3 325,122.2 323.8,135.4 314.3,144.7 	"/>
	<polygon fill="none" stroke="#BCBDBF" stroke-width="0.5" stroke-miterlimit="10" points="304.2,130 293.4,122.4 290,109.6 
		295.7,97.6 307.7,92.1 320.5,95.6 328,106.5 326.8,119.7 317.3,129 	"/>
	<polygon fill="none" stroke="#BCBDBF" stroke-width="0.5" stroke-miterlimit="10" points="284.1,151.1 273.3,143.5 269.9,130.7 
		275.6,118.7 287.6,113.2 300.4,116.7 307.9,127.6 306.7,140.8 297.3,150.1 	"/>
	<polygon fill="none" stroke="#BCBDBF" stroke-width="0.5" stroke-miterlimit="10" points="58.3,312.6 47.5,305 44.1,292.2 
		49.8,280.2 61.8,274.7 74.6,278.2 82.1,289.1 80.9,302.3 71.4,311.6 	"/>
	<polygon fill="none" stroke="#BCBDBF" stroke-width="0.5" stroke-miterlimit="10" points="73.2,326.8 62.4,319.1 59,306.3 
		64.7,294.3 76.7,288.8 89.5,292.3 97,303.2 95.8,316.4 86.3,325.7 	"/>
	<polygon fill="none" stroke="#BCBDBF" stroke-width="0.5" stroke-miterlimit="10" points="76.2,311 65.4,303.4 62,290.6 
		67.7,278.6 79.7,273.1 92.5,276.6 100,287.5 98.8,300.7 89.3,310 	"/>
	<polygon fill="none" stroke="#BCBDBF" stroke-width="0.5" stroke-miterlimit="10" points="56.1,332.1 45.3,324.5 41.9,311.7 
		47.6,299.7 59.6,294.2 72.4,297.7 79.9,308.6 78.7,321.8 69.3,331.1 	"/>
	<polygon fill="none" stroke="#BCBDBF" stroke-width="0.5" stroke-miterlimit="10" points="266.8,412.6 256,405 252.6,392.2 
		258.3,380.2 270.3,374.7 283.1,378.2 290.6,389.1 289.4,402.3 279.9,411.6 	"/>
	<polygon fill="none" stroke="#BCBDBF" stroke-width="0.5" stroke-miterlimit="10" points="273,426.8 262.2,419.1 258.9,406.3 
		264.5,394.3 276.5,388.8 289.3,392.3 296.8,403.2 295.6,416.4 286.2,425.7 	"/>
	<polygon fill="none" stroke="#BCBDBF" stroke-width="0.5" stroke-miterlimit="10" points="284.7,411 273.9,403.4 270.5,390.6 
		276.2,378.6 288.2,373.1 301,376.6 308.5,387.5 307.3,400.7 297.8,410 	"/>
	<polygon fill="none" stroke="#BCBDBF" stroke-width="0.5" stroke-miterlimit="10" points="255.9,432.1 245.1,424.5 241.8,411.7 
		247.4,399.7 259.5,394.2 272.2,397.7 279.7,408.6 278.5,421.8 269.1,431.1 	"/>
	<polygon fill="none" stroke="#BCBDBF" stroke-width="0.5" stroke-miterlimit="10" points="131.4,79.1 111.3,64.8 105,40.9 
		115.6,18.6 138.1,8.2 161.9,14.8 176,35.1 173.7,59.7 156.1,77.1 	"/>
	<polygon fill="none" stroke="#BCBDBF" stroke-width="0.5" stroke-miterlimit="10" points="159.3,105.5 139.1,91.2 132.9,67.3 
		143.4,44.9 165.9,34.6 189.8,41.2 203.8,61.5 201.5,86.1 183.9,103.5 	"/>
	<polygon fill="none" stroke="#BCBDBF" stroke-width="0.5" stroke-miterlimit="10" points="164.9,76.1 144.7,61.8 138.5,37.9 
		149.1,15.5 171.5,5.2 195.4,11.8 209.4,32.1 207.1,56.7 189.6,74.1 	"/>
	<polygon fill="none" stroke="#BCBDBF" stroke-width="0.5" stroke-miterlimit="10" points="127.4,115.6 107.2,101.3 100.9,77.3 
		111.5,55 134,44.7 157.8,51.2 171.9,71.5 169.6,96.2 152,113.6 	"/>
	<polygon fill="none" stroke="#BCBDBF" stroke-width="0.5" stroke-miterlimit="10" points="331.9,285.6 311.8,271.3 305.5,247.4 
		316.1,225.1 338.6,214.7 362.4,221.3 376.5,241.6 374.2,266.2 356.6,283.6 	"/>
	<polygon fill="none" stroke="#BCBDBF" stroke-width="0.5" stroke-miterlimit="10" points="359.8,312 339.6,297.7 333.4,273.8 
		343.9,251.4 366.4,241.1 390.3,247.7 404.3,268 402,292.6 384.4,310 	"/>
	<polygon fill="none" stroke="#BCBDBF" stroke-width="0.5" stroke-miterlimit="10" points="365.4,282.6 345.2,268.3 339,244.4 
		349.6,222 372,211.7 395.9,218.3 409.9,238.6 407.6,263.2 390.1,280.6 	"/>
	<polygon fill="none" stroke="#BCBDBF" stroke-width="0.5" stroke-miterlimit="10" points="327.9,322.1 307.7,307.8 301.4,283.8 
		312,261.5 334.5,251.2 358.3,257.7 372.4,278 370.1,302.7 352.5,320.1 	"/>
	<polygon opacity="0.93" fill="#E90D8B" points="34.1,83.1 145.7,61.8 145.7,246.2 34.1,267.5 	"/>
	<polygon opacity="0.93" fill="#F6EB27" points="126.6,135.6 238.2,114.3 238.2,298.7 126.6,320 	"/>
	<polygon opacity="0.93" fill="#28ABE2" points="219.8,188.4 331.4,167.1 331.4,351.5 219.8,372.8 	"/>
	<g>
		<g>
			<path fill="none" stroke="#1B141A" stroke-width="1.5919" stroke-miterlimit="10" d="M137.3,238.6c-36.8,6.8-73.4,14.4-110.3,21
				c0-60.9,0-121.8,0.1-182.7c36.7-7.1,73.4-14.3,110.2-21C137.3,116.8,137.3,177.7,137.3,238.6z"/>
			<path fill="none" stroke="#1B141A" stroke-width="1.5919" stroke-miterlimit="10" d="M48.1,113.8c25-4.8,49.9-9.7,74.9-14.4"/>
			<path fill="none" stroke="#1B141A" stroke-width="1.5919" stroke-miterlimit="10" d="M38.9,120.7c28-5.4,56.1-10.9,84.1-16.2"/>
			<path fill="none" stroke="#1B141A" stroke-width="1.5919" stroke-miterlimit="10" d="M38.8,125.8c28.1-5.4,56.1-10.9,84.2-16.2"
				/>
			<path fill="none" stroke="#1B141A" stroke-width="1.5919" stroke-miterlimit="10" d="M38.8,130.9c28.1-5.4,56.1-10.9,84.2-16.2"
				/>
			<path fill="none" stroke="#1B141A" stroke-width="1.5919" stroke-miterlimit="10" d="M38.8,136c28.1-5.4,56.1-10.9,84.2-16.2"/>
			<path fill="none" stroke="#1B141A" stroke-width="1.5919" stroke-miterlimit="10" d="M38.8,141.1c28.1-5.4,56.1-10.9,84.2-16.2"
				/>
			<path fill="none" stroke="#1B141A" stroke-width="1.5919" stroke-miterlimit="10" d="M38.7,146.2c28.1-5.4,56.1-10.9,84.2-16.2"
				/>
			<path fill="none" stroke="#1B141A" stroke-width="1.5919" stroke-miterlimit="10" d="M38.7,151.4c28.1-5.4,56.1-10.9,84.2-16.2"
				/>
			<path fill="none" stroke="#1B141A" stroke-width="1.5919" stroke-miterlimit="10" d="M38.7,156.5c28.1-5.4,56.2-10.9,84.3-16.2"
				/>
			<path fill="none" stroke="#1B141A" stroke-width="1.5919" stroke-miterlimit="10" d="M38.7,161.6c28.1-5.4,56.2-10.9,84.3-16.2"
				/>
			<path fill="none" stroke="#1B141A" stroke-width="1.5919" stroke-miterlimit="10" d="M38.6,166.7c28.1-5.4,56.2-10.9,84.3-16.2"
				/>
			<path fill="none" stroke="#1B141A" stroke-width="1.5919" stroke-miterlimit="10" d="M38.6,171.8c28.1-5.4,56.2-10.9,84.3-16.2"
				/>
			<path fill="none" stroke="#1B141A" stroke-width="1.5919" stroke-miterlimit="10" d="M38.6,176.9c28.1-5.4,56.2-10.9,84.3-16.2"
				/>
			<path fill="none" stroke="#1B141A" stroke-width="1.5919" stroke-miterlimit="10" d="M38.6,182.1c28.1-5.4,56.2-10.9,84.4-16.3"
				/>
			<path fill="none" stroke="#1B141A" stroke-width="1.5919" stroke-miterlimit="10" d="M38.6,187.2c28.1-5.4,56.2-11,84.4-16.3"/>
			<path fill="none" stroke="#1B141A" stroke-width="1.5919" stroke-miterlimit="10" d="M38.5,192.3c28.1-5.3,56.2-11,84.4-16.3"/>
			<path fill="none" stroke="#1B141A" stroke-width="1.5919" stroke-miterlimit="10" d="M38.5,197.4c28.2-5.3,56.3-11,84.4-16.3"/>
			<path fill="none" stroke="#1B141A" stroke-width="1.5919" stroke-miterlimit="10" d="M38.5,202.5c28.2-5.3,56.3-11,84.4-16.3"/>
			<path fill="none" stroke="#1B141A" stroke-width="1.5919" stroke-miterlimit="10" d="M38.5,207.6c28.2-5.3,56.3-11,84.5-16.3"/>
			<path fill="none" stroke="#1B141A" stroke-width="1.5919" stroke-miterlimit="10" d="M38.4,212.7c19.5-3.6,39-7.5,58.5-11.3"/>
		</g>
	</g>
	<g>
		<g>
			<path fill="none" stroke="#1B141A" stroke-width="1.5919" stroke-miterlimit="10" d="M230.2,291.6c-36.8,6.8-73.4,14.4-110.3,21
				c0-60.9,0-121.8,0.1-182.7c36.7-7.1,73.4-14.3,110.2-21C230.2,169.7,230.2,230.7,230.2,291.6z"/>
			<path fill="none" stroke="#1B141A" stroke-width="1.5919" stroke-miterlimit="10" d="M141,166.7c25-4.8,49.9-9.7,74.9-14.4"/>
			<path fill="none" stroke="#1B141A" stroke-width="1.5919" stroke-miterlimit="10" d="M131.7,173.6c28-5.4,56.1-10.9,84.1-16.2"/>
			<path fill="none" stroke="#1B141A" stroke-width="1.5919" stroke-miterlimit="10" d="M131.7,178.7c28.1-5.4,56.1-10.9,84.2-16.2"
				/>
			<path fill="none" stroke="#1B141A" stroke-width="1.5919" stroke-miterlimit="10" d="M131.7,183.8c28.1-5.4,56.1-10.9,84.2-16.2"
				/>
			<path fill="none" stroke="#1B141A" stroke-width="1.5919" stroke-miterlimit="10" d="M131.7,188.9c28.1-5.4,56.1-10.9,84.2-16.2"
				/>
			<path fill="none" stroke="#1B141A" stroke-width="1.5919" stroke-miterlimit="10" d="M131.6,194c28.1-5.4,56.1-10.9,84.2-16.2"/>
			<path fill="none" stroke="#1B141A" stroke-width="1.5919" stroke-miterlimit="10" d="M131.6,199.2c28.1-5.4,56.1-10.9,84.2-16.2"
				/>
			<path fill="none" stroke="#1B141A" stroke-width="1.5919" stroke-miterlimit="10" d="M131.6,204.3c28.1-5.4,56.1-10.9,84.2-16.2"
				/>
			<path fill="none" stroke="#1B141A" stroke-width="1.5919" stroke-miterlimit="10" d="M131.6,209.4c28.1-5.4,56.2-10.9,84.3-16.2"
				/>
			<path fill="none" stroke="#1B141A" stroke-width="1.5919" stroke-miterlimit="10" d="M131.6,214.5c28.1-5.4,56.2-10.9,84.3-16.2"
				/>
			<path fill="none" stroke="#1B141A" stroke-width="1.5919" stroke-miterlimit="10" d="M131.5,219.6c28.1-5.4,56.2-10.9,84.3-16.2"
				/>
			<path fill="none" stroke="#1B141A" stroke-width="1.5919" stroke-miterlimit="10" d="M131.5,224.7c28.1-5.4,56.2-10.9,84.3-16.2"
				/>
			<path fill="none" stroke="#1B141A" stroke-width="1.5919" stroke-miterlimit="10" d="M131.5,229.9c28.1-5.4,56.2-10.9,84.3-16.2"
				/>
			<path fill="none" stroke="#1B141A" stroke-width="1.5919" stroke-miterlimit="10" d="M131.5,235c28.1-5.4,56.2-10.9,84.4-16.3"/>
			<path fill="none" stroke="#1B141A" stroke-width="1.5919" stroke-miterlimit="10" d="M131.4,240.1c28.1-5.4,56.2-11,84.4-16.3"/>
			<path fill="none" stroke="#1B141A" stroke-width="1.5919" stroke-miterlimit="10" d="M131.4,245.2c28.1-5.3,56.2-11,84.4-16.3"/>
			<path fill="none" stroke="#1B141A" stroke-width="1.5919" stroke-miterlimit="10" d="M131.4,250.3c28.2-5.3,56.3-11,84.4-16.3"/>
			<path fill="none" stroke="#1B141A" stroke-width="1.5919" stroke-miterlimit="10" d="M131.4,255.4c28.2-5.3,56.3-11,84.4-16.3"/>
			<path fill="none" stroke="#1B141A" stroke-width="1.5919" stroke-miterlimit="10" d="M131.3,260.5c28.2-5.3,56.3-11,84.5-16.3"/>
			<path fill="none" stroke="#1B141A" stroke-width="1.5919" stroke-miterlimit="10" d="M131.3,265.7c19.5-3.6,39-7.5,58.5-11.3"/>
		</g>
	</g>
	<g>
		<g>
			<path fill="none" stroke="#1B141A" stroke-width="1.5919" stroke-miterlimit="10" d="M323.5,343.7c-36.8,6.8-73.4,14.4-110.3,21
				c0-60.9,0-121.8,0.1-182.7c36.7-7.1,73.4-14.3,110.2-21C323.5,221.9,323.5,282.8,323.5,343.7z"/>
			<path fill="none" stroke="#1B141A" stroke-width="1.5919" stroke-miterlimit="10" d="M234.3,218.9c25-4.8,49.9-9.7,74.9-14.4"/>
			<path fill="none" stroke="#1B141A" stroke-width="1.5919" stroke-miterlimit="10" d="M225.1,225.8c28-5.4,56.1-10.9,84.1-16.2"/>
			<path fill="none" stroke="#1B141A" stroke-width="1.5919" stroke-miterlimit="10" d="M225,230.9c28.1-5.4,56.1-10.9,84.2-16.2"/>
			<path fill="none" stroke="#1B141A" stroke-width="1.5919" stroke-miterlimit="10" d="M225,236c28.1-5.4,56.1-10.9,84.2-16.2"/>
			<path fill="none" stroke="#1B141A" stroke-width="1.5919" stroke-miterlimit="10" d="M225,241.1c28.1-5.4,56.1-10.9,84.2-16.2"/>
			<path fill="none" stroke="#1B141A" stroke-width="1.5919" stroke-miterlimit="10" d="M225,246.2c28.1-5.4,56.1-10.9,84.2-16.2"/>
			<path fill="none" stroke="#1B141A" stroke-width="1.5919" stroke-miterlimit="10" d="M225,251.4c28.1-5.4,56.1-10.9,84.2-16.2"/>
			<path fill="none" stroke="#1B141A" stroke-width="1.5919" stroke-miterlimit="10" d="M224.9,256.5c28.1-5.4,56.1-10.9,84.2-16.2"
				/>
			<path fill="none" stroke="#1B141A" stroke-width="1.5919" stroke-miterlimit="10" d="M224.9,261.6c28.1-5.4,56.2-10.9,84.3-16.2"
				/>
			<path fill="none" stroke="#1B141A" stroke-width="1.5919" stroke-miterlimit="10" d="M224.9,266.7c28.1-5.4,56.2-10.9,84.3-16.2"
				/>
			<path fill="none" stroke="#1B141A" stroke-width="1.5919" stroke-miterlimit="10" d="M224.9,271.8c28.1-5.4,56.2-10.9,84.3-16.2"
				/>
			<path fill="none" stroke="#1B141A" stroke-width="1.5919" stroke-miterlimit="10" d="M224.8,276.9c28.1-5.4,56.2-10.9,84.3-16.2"
				/>
			<path fill="none" stroke="#1B141A" stroke-width="1.5919" stroke-miterlimit="10" d="M224.8,282c28.1-5.4,56.2-10.9,84.3-16.2"/>
			<path fill="none" stroke="#1B141A" stroke-width="1.5919" stroke-miterlimit="10" d="M224.8,287.2c28.1-5.4,56.2-10.9,84.4-16.3"
				/>
			<path fill="none" stroke="#1B141A" stroke-width="1.5919" stroke-miterlimit="10" d="M224.8,292.3c28.1-5.4,56.2-11,84.4-16.3"/>
			<path fill="none" stroke="#1B141A" stroke-width="1.5919" stroke-miterlimit="10" d="M224.7,297.4c28.1-5.3,56.2-11,84.4-16.3"/>
			<path fill="none" stroke="#1B141A" stroke-width="1.5919" stroke-miterlimit="10" d="M224.7,302.5c28.2-5.3,56.3-11,84.4-16.3"/>
			<path fill="none" stroke="#1B141A" stroke-width="1.5919" stroke-miterlimit="10" d="M224.7,307.6c28.2-5.3,56.3-11,84.4-16.3"/>
			<path fill="none" stroke="#1B141A" stroke-width="1.5919" stroke-miterlimit="10" d="M224.7,312.7c28.2-5.3,56.3-11,84.5-16.3"/>
			<path fill="none" stroke="#1B141A" stroke-width="1.5919" stroke-miterlimit="10" d="M224.7,317.9c19.5-3.6,39-7.5,58.5-11.3"/>
		</g>
	</g>
</g>
</svg>
