<?xml version="1.0" encoding="utf-8"?>
<!-- Generator: Adobe Illustrator 18.1.1, SVG Export Plug-In . SVG Version: 6.00 Build 0)  -->
<svg version="1.1" id="Layer_1" xmlns="http://www.w3.org/2000/svg" xmlns:xlink="http://www.w3.org/1999/xlink" x="0px" y="0px"
	 viewBox="0 0 584.7 208.7" enable-background="new 0 0 584.7 208.7" xml:space="preserve">
<g>
	<g>
		<linearGradient id="SVGID_1_" gradientUnits="userSpaceOnUse" x1="394.0972" y1="124.3906" x2="394.0972" y2="205.7494">
			<stop  offset="0" style="stop-color:#FFFFFF;stop-opacity:0.1"/>
			<stop  offset="6.673062e-02" style="stop-color:#FFFFFF;stop-opacity:9.332694e-02"/>
			<stop  offset="1" style="stop-color:#FFFFFF;stop-opacity:0"/>
		</linearGradient>
		<path fill="url(#SVGID_1_)" d="M434.4,157.4c-3.6-19.1-20.4-32.9-39.8-33v0c0,0-0.1,0-0.1,0c0,0,0,0,0,0c0,0,0,0-0.1,0
			c-0.6,0-1.2,0-1.8,0c-21.6,1-38.9,18.8-38.9,40.6c0,22.5,18.3,40.7,40.7,40.7c0,0,0,0,0.1,0c0,0,0,0,0.1,0v0
			c10.8,0,21-4.4,28.6-12l-5.6-5.6c-6.1,6-14.5,9.6-23.1,9.6c-18,0-32.7-14.7-32.7-32.7c0-0.5,0-1,0-1.5c0-0.2,0-0.4,0-0.6
			c0-0.3,0-0.6,0.1-0.9c0-0.3,0.1-0.5,0.1-0.8c0-0.2,0-0.4,0.1-0.6c0-0.3,0.1-0.7,0.1-1c0-0.1,0-0.2,0.1-0.3
			c2.3-12.6,11.8-22.9,24.5-26v24.1h7.1v0H434.4z M423.3,149.6h-28.6v-17.2C407,132.4,417.7,139.4,423.3,149.6z"/>
		<linearGradient id="SVGID_2_" gradientUnits="userSpaceOnUse" x1="145.2786" y1="122.1841" x2="145.2786" y2="200.3484">
			<stop  offset="0" style="stop-color:#FFFFFF;stop-opacity:0.1"/>
			<stop  offset="6.673062e-02" style="stop-color:#FFFFFF;stop-opacity:9.332694e-02"/>
			<stop  offset="1" style="stop-color:#FFFFFF;stop-opacity:0"/>
		</linearGradient>
		<path fill="url(#SVGID_2_)" d="M137.7,146.3h-4.2v-24.1h-7.8v78.2h12c14.9,0,27-12.1,27-27C164.8,158.4,152.7,146.3,137.7,146.3z
			 M137.7,192.6h-4.2V154h4.2c10.6,0,19.3,8.7,19.3,19.3C157,183.9,148.4,192.6,137.7,192.6z"/>
		<linearGradient id="SVGID_3_" gradientUnits="userSpaceOnUse" x1="197.0851" y1="122.1841" x2="197.0851" y2="202.7448">
			<stop  offset="0" style="stop-color:#FFFFFF;stop-opacity:0.1"/>
			<stop  offset="6.673062e-02" style="stop-color:#FFFFFF;stop-opacity:9.332694e-02"/>
			<stop  offset="1" style="stop-color:#FFFFFF;stop-opacity:0"/>
		</linearGradient>
		<path fill="url(#SVGID_3_)" d="M215.4,133.5h-36.6l-4.3-11.3h-8.3l30.9,80.6l30.9-80.6h-8.3L215.4,133.5z M181.2,139.9h31.7
			l-15.9,42L181.2,139.9z"/>
		<linearGradient id="SVGID_4_" gradientUnits="userSpaceOnUse" x1="259.4465" y1="122.1841" x2="259.4465" y2="200.3484">
			<stop  offset="0" style="stop-color:#FFFFFF;stop-opacity:0.1"/>
			<stop  offset="6.673062e-02" style="stop-color:#FFFFFF;stop-opacity:9.332694e-02"/>
			<stop  offset="1" style="stop-color:#FFFFFF;stop-opacity:0"/>
		</linearGradient>
		<path fill="url(#SVGID_4_)" d="M268.9,122.2l-21.5,24.4v-24.4h-7.8v78.2h12c14.9,0,27-12.1,27-27c0-12.7-8.7-23.6-21-26.4
			l21.6-24.8H268.9z M270.9,173.3c0,10.6-8.7,19.3-19.3,19.3h-4.2V154h4.2C262.2,154,270.9,162.7,270.9,173.3z"/>
		<linearGradient id="SVGID_5_" gradientUnits="userSpaceOnUse" x1="317.2433" y1="122.1841" x2="317.2433" y2="202.7448">
			<stop  offset="0" style="stop-color:#FFFFFF;stop-opacity:0.1"/>
			<stop  offset="6.673062e-02" style="stop-color:#FFFFFF;stop-opacity:9.332694e-02"/>
			<stop  offset="1" style="stop-color:#FFFFFF;stop-opacity:0"/>
		</linearGradient>
		<path fill="url(#SVGID_5_)" d="M335.6,133.5h-36.6l-4.3-11.3h-8.3l30.9,80.6l30.9-80.6h-8.3L335.6,133.5z M301.4,139.9h31.7
			l-15.9,42L301.4,139.9z"/>
		<linearGradient id="SVGID_6_" gradientUnits="userSpaceOnUse" x1="484.3024" y1="124.3906" x2="484.3024" y2="205.7494">
			<stop  offset="0" style="stop-color:#FFFFFF;stop-opacity:0.1"/>
			<stop  offset="6.673062e-02" style="stop-color:#FFFFFF;stop-opacity:9.332694e-02"/>
			<stop  offset="1" style="stop-color:#FFFFFF;stop-opacity:0"/>
		</linearGradient>
		<path fill="url(#SVGID_6_)" d="M484.4,124.4c0,0-0.1,0-0.1,0c0,0-0.1,0-0.1,0c-22.5,0-40.7,18.1-40.7,40.6
			c0,22.5,18.3,40.7,40.7,40.7c0,0,0.1,0,0.1,0c0,0,0.1,0,0.1,0c22.5,0,40.7-18.3,40.7-40.7C525.2,142.5,506.9,124.4,484.4,124.4z
			 M451.8,165c0-18,14.5-32.6,32.5-32.6c18,0.1,32.5,14.6,32.5,32.6c0,18-14.5,32.7-32.5,32.7C466.3,197.7,451.8,183,451.8,165z"/>
		<linearGradient id="SVGID_7_" gradientUnits="userSpaceOnUse" x1="562.2424" y1="122.4125" x2="562.2424" y2="206.6371">
			<stop  offset="0" style="stop-color:#FFFFFF;stop-opacity:0.1"/>
			<stop  offset="6.673062e-02" style="stop-color:#FFFFFF;stop-opacity:9.332694e-02"/>
			<stop  offset="1" style="stop-color:#FFFFFF;stop-opacity:0"/>
		</linearGradient>
		<polygon fill="url(#SVGID_7_)" points="582.6,124.5 582.6,124.1 549.7,178.6 549.7,122.4 549.5,122.4 541.9,122.4 541.7,122.4 
			541.7,206.6 541.9,206.3 541.9,206.6 574.8,151.9 574.8,204.5 575,204.5 582.6,204.5 582.8,204.5 582.8,124.1 		"/>
	</g>
	<g opacity="0.3">
		<path fill="#FFFFFF" d="M138.1,97.7h-4.2v24.1h-7.8V43.6h12c14.9,0,27,12.1,27,27C165.2,85.6,153.1,97.7,138.1,97.7z M138.1,51.3
			h-4.2v38.6h4.2c10.6,0,19.3-8.7,19.3-19.3C157.4,60,148.8,51.3,138.1,51.3z"/>
		<path fill="#FFFFFF" d="M215.9,110.4h-36.7l-4.2,11.3h-8.3l30.9-80.6l30.9,80.6h-8.3L215.9,110.4z M181.6,104h31.7l-15.9-42
			L181.6,104z"/>
		<path fill="#FFFFFF" d="M258.1,97l21.6,24.8h-10.4l-21.5-24.4v24.4H240V43.6h12c14.9,0,27,12.1,27,27
			C279.1,83.3,270.4,94.2,258.1,97z M252,51.3h-4.2v38.6h4.2c10.6,0,19.3-8.7,19.3-19.3C271.3,60,262.6,51.3,252,51.3z"/>
		<path fill="#FFFFFF" d="M336,110.4h-36.7l-4.2,11.3h-8.3l30.9-80.6l30.9,80.6h-8.3L336,110.4z M301.8,104h31.7l-15.9-42L301.8,104
			z"/>
		<path fill="#FFFFFF" d="M423.7,98.1h-29.3v-7.8h40.5c-3.7,19.2-20.4,33-39.9,33c-22.5,0-40.7-18.3-40.7-40.6
			c0-22.5,18.3-40.7,40.7-40.7c10.8,0,21.1,4.3,28.8,12l-5.6,5.6c-6.2-6-14.5-9.6-23.2-9.6c-18,0-32.6,14.7-32.6,32.7
			c0,18,14.6,32.6,32.6,32.6C407.3,115.3,418.1,108.4,423.7,98.1z"/>
		<path fill="#FFFFFF" d="M484.6,123.3c-22.5,0-40.7-18.1-40.7-40.6c0-22.5,18.3-40.7,40.7-40.7c22.5,0,40.7,18.3,40.7,40.7
			C525.3,105.2,507.1,123.3,484.6,123.3z M484.6,115.3c18,0,32.6-14.6,32.6-32.6c0-18-14.6-32.7-32.6-32.7
			c-18,0-32.6,14.7-32.6,32.7C452,100.7,466.6,115.3,484.6,115.3z"/>
		<path fill="#FFFFFF" d="M549.9,69v52.7h-7.8V41.4l33.1,55.1V43.6h7.8v80.3L549.9,69z"/>
	</g>
	<g>
		<path fill="#FFFFFF" d="M138.1,97.7h-4.2v24.1h-7.8V43.6h12c14.9,0,27,12.1,27,27C165.2,85.6,153.1,97.7,138.1,97.7z M138.1,51.3
			h-4.2v38.6h4.2c10.6,0,19.3-8.7,19.3-19.3C157.4,60,148.8,51.3,138.1,51.3z"/>
		<path fill="#FFFFFF" d="M197.5,62l-22.6,59.7h-8.3l30.9-80.6l30.9,80.6h-8.3L197.5,62z"/>
		<path fill="#FFFFFF" d="M258.1,97l21.6,24.8h-10.4l-21.5-24.4v24.4H240V43.6h12c14.9,0,27,12.1,27,27
			C279.1,83.3,270.4,94.2,258.1,97z M252,51.3h-4.2v38.6h4.2c10.6,0,19.3-8.7,19.3-19.3C271.3,60,262.6,51.3,252,51.3z"/>
		<path fill="#FFFFFF" d="M317.6,62l-22.6,59.7h-8.3l30.9-80.6l30.9,80.6h-8.3L317.6,62z"/>
		<path fill="#FFFFFF" d="M392,123.2c-21.1-1.5-37.8-19.1-37.8-40.5c0-22.5,18.3-40.7,40.7-40.7v8c-18,0-32.7,14.7-32.7,32.7
			c0,15.1,10.4,28.2,25,31.7V90.4h7.8v33C394,123.3,393.1,123.3,392,123.2z"/>
		<path fill="#FFFFFF" d="M484.8,123.3c-22.5,0-40.7-18.1-40.7-40.6c0-22.5,18.3-40.7,40.7-40.7c22.5,0,40.7,18.3,40.7,40.7
			C525.6,105.2,507.3,123.3,484.8,123.3z M484.8,115.3c18,0,32.6-14.6,32.6-32.6c0-18-14.6-32.7-32.6-32.7
			c-18,0-32.6,14.7-32.6,32.7C452.2,100.7,466.8,115.3,484.8,115.3z"/>
		<path fill="#FFFFFF" d="M550.1,69v52.7h-7.8V41.4l33.1,55.1V43.6h7.8v80.3L550.1,69z"/>
	</g>
	<g>
		<polygon fill="#EDE3D4" points="92.6,142.5 42.3,163 42.3,40.8 92.6,20.3 		"/>
		<polygon fill="#ED1C24" points="65.3,19.8 51.7,25.3 51.7,37 65.3,31.4 		"/>
		<polygon fill="#FCEE21" points="51.7,13.7 65.3,8.1 65.3,19.8 51.7,25.3 		"/>
		<polygon fill="#00AEEF" points="51.7,2 1.5,22.6 1.5,144.8 15.1,139.2 15.1,28.7 51.7,13.7 		"/>
		<polygon fill="#FCEE21" points="15.1,150.9 28.7,144.8 28.7,133.7 15.1,139.2 		"/>
		<polygon fill="#00A651" points="51.7,13.7 51.7,25.3 28.7,34.7 28.7,133.7 15.1,139.2 15.1,28.7 		"/>
		<polygon fill="#E90E8B" points="28.7,144.8 42.3,139.7 42.3,150.9 28.7,157 		"/>
		<polygon fill="#ED1C24" points="42.3,128.7 42.3,139.7 28.7,144.8 28.7,133.7 		"/>
		<polygon fill="#363639" points="51.7,37 42.3,40.8 42.3,128.7 28.7,133.7 28.7,34.7 51.7,25.3 		"/>
		<polygon fill="#E90E8B" points="65.3,31.4 78.9,25.8 78.9,14.2 65.3,19.8 		"/>
	</g>
</g>
</svg>
